<svg xmlns="http://www.w3.org/2000/svg" viewBox="0 0 163.1 77.9"><defs><style>.cls-1{fill:#e1e1fc;}</style></defs><g id="レイヤー_2" data-name="レイヤー 2"><g id="レイヤー_1-2" data-name="レイヤー 1"><path class="cls-1" d="M23.1,19.4c1.1-.3,1.1.7,1.5.6s.1.5.2.7.2,2.3.5,3.6a15.5,15.5,0,0,0-.4,2.1c-.5.1.1.8-.4.9v1.1c-.4.4-.4,1.1-.7,1.7h0c.1.4-.5.5-.4.8s-.2.5-.1.9-.4.9-1,1.2a5.3,5.3,0,0,1-1.1,2.1c-.5,1.2-2.3,3-2.3,3.7s-.4.9-.9,1.2a2,2,0,0,0-.8,1.4c-.1.5-.8,1.2-.7,1.3h-.2c-.4.1-.4.9-.7,1s-.6.8-1,1.1a9.6,9.6,0,0,1-3.4,2.3c-1.7.5-1.2-.4-1.8-.7v-.2c-.1-.4-.4-.6-.5-.9s-.2-2.5-.4-3.8a3.3,3.3,0,0,0-.1-2.4c.3-.4,0-1.1.2-1.5l.3-1.3H8.7c0,.1-1.5,2.2-2.1,3.5a5,5,0,0,1-.9,1.5,3.1,3.1,0,0,0-.5,1,2.3,2.3,0,0,1-.7,1c-.3,1.3-1.3,2.7-1.8,4.4s-.8,2.4-1.6,2.8l-.7.4c-.3.1-.4-.2-.4-.5A3.5,3.5,0,0,1,.6,48h0c.4-.1,0-.5.3-.6a1.3,1.3,0,0,0,.6-1.1v-.2h0c.6-.8,1-2.2,1.6-3.1a7.5,7.5,0,0,0,.7-1.2l.6-1.2c.1-.6.6-.8.6-1.4a6.9,6.9,0,0,0,1-1.9c.2-.3.5-.4.7-.7S8.9,31.3,9.9,31s.8.5,1,.9a.8.8,0,0,1-.2.8,9,9,0,0,1-.2,2.3c-.1.7-.3,1.4-.4,2.1a8.1,8.1,0,0,0,0,2.2.4.4,0,0,1,.1.3c.1.3-.4.2-.4.4a31.5,31.5,0,0,0,.3,4.6c.3,1.5.3,1.3,1.1,1s1.1-1,1.3-1,.8-.9,1.2-1.2l.6-.5c.2-.2.3-.8.9-1.1s.3-1,.5-1.1h.2a37.5,37.5,0,0,0,2.4-3.6l3.5-5.5c.7-1.3.9-2.9,1.7-4.2s.4-2.4.5-3.5.2-.2.2-.3-.3-.9,0-1.2v-.3l-.3-.9c0-.3-.1-.6,0-.8S23.2,19.9,23.1,19.4Z"/><path class="cls-1" d="M42.6,33.9c-.4.4-.8,1.3-1.2,1.6s-.2.5-.7.9l-1.1,1.3-.8.4c-.3.2-.2.5-.6.5A2.6,2.6,0,0,0,36.6,40l-2.6.9c0-.3-.6.1-.8.1s-.6-.1-.7-.4-.2-.6-.6-.5-.4.5-.7.7a5.3,5.3,0,0,0-1.2,1c-.2.2-.9.5-1.3.9a4.6,4.6,0,0,1-1.7.9c.1,0-.5-.2-.7.1A2.9,2.9,0,0,1,24.9,41a2.5,2.5,0,0,0,.3-1.7c.3-.5.4-1.1.7-1.7s1.2-1.9,1.8-2.9a3.1,3.1,0,0,0,1-1.5c.7-.2.7-.8,1.1-1.1s1.2-.7,1.4-1.3,1.9-1.3,3.1-1.8,1.7.8,1.7,2.1-.3.7-.7.9-.2.3-.2.5-.3.2-.5.3.1-1.2,0-1.8-1.1.6-2,.6l-1.3,1c-.3.3-.5.7-.9.9s-1,1.6-1.9,2.1a6.4,6.4,0,0,1-.8,1.9c-.3.2-.3.6-.5.9s-.2.7-.6.9-.1,1.8-.2,2.7,1.6-.7,2.3-.9.2-.2.4-.4l.3-.4c.2-.2.9-.3.7-.8s.7-.1.8-.3.2-.6.6-.6.3-1,.2-1.7.5-.7.4-1.3a2.7,2.7,0,0,1,2.3-2.4c1.6-.3.6.6.8.7s-.4,1.1-.3,1.9a3.1,3.1,0,0,0-.6,1.3,3.6,3.6,0,0,0-.7,1c-.1.2-.7.4-.3.9s.6,0,.8.3l.8-.4a3.3,3.3,0,0,0,1.2-.5l1.2-.9,2.2-1.8a5.2,5.2,0,0,1,1-1.1L41.9,33Z"/><path class="cls-1" d="M52.5,33.9c-.6.5-.8,1-1.2,1.3a5.7,5.7,0,0,1-1.1,1.1l-.5.4-.5.4-.9.6-.6.2-.7.5a8.5,8.5,0,0,0-2.6.5c-.2-.3-.7-.2-1.1-.2s-1.4-.8-1.8-1.8a8.6,8.6,0,0,1-.2-2.3,10.9,10.9,0,0,1,.3-2.6c.3-1.4.7-2.7,1.1-4s-.7,0-1.2.1l-1.5.8c-.9.3-2,1-2.5.1s.6-.5.8-.8.9-.3,1-.7,2.7-1,4.1-1.5a.5.5,0,0,0,.4-.5c.1-.2,0-.3.1-.5a13.7,13.7,0,0,0,.8-1.4c.2-.5.6-1.7,1-2.6s.1-1.3,1.1-1.5.3,1,.7,1.2-1.3,2.6-1.4,4.4c.1.2.7-.2,1-.2l9.7-3.2c.4.1,1,.2.7.7l-1.2.5-2.2.7c-.6.5-1.2.4-1.9.9l-1.4.3c-.9.6-1,.2-1.9.7l-.8.2-.8.5c-.3.2-1.2-.3-1.5.4s-.5.2-.7.3a5.7,5.7,0,0,0-.9,2.5,3.4,3.4,0,0,1-.9,2.2c-.6.7-.2.6-.3.9s0,.8-.3,1.1-.2,2.2.6,3.2.6.3,1,.3h.1c1.1.2,2.3-.6,3.2-1a4,4,0,0,0,1.5-1l.7-.6.5-.6.8-.4c.1-.3.6-.4,1-.6S52.2,33.7,52.5,33.9Z"/><path class="cls-1" d="M66.5,27.7a4.4,4.4,0,0,1,.8,1.1s-1.5,1.7-1.6,1.7a11.6,11.6,0,0,1-2.8,2.6l-1.1.5-2,.2c-.5-.1-.8-.5-1.2-.9a5.7,5.7,0,0,0-1.5,1.6c-1,.5-1.9,1.5-3,2l-.7.2a2.9,2.9,0,0,1-1.6.2c-.7,0-.9-.8-1.3-1.1V34a52,52,0,0,1,2.1-5.5c-.2-.4,1-2,1-2.4s-.1-.6.4-.6h1.2c.4.1-.3,1.9-.8,2.7a2.2,2.2,0,0,1-.6,1.5,19.4,19.4,0,0,1-1.3,3c0,.9-.9,1.3-.4,2.5s2.5-1.1,3.6-1.6l1.7-1.6,1.5-1.6A31.3,31.3,0,0,1,61.1,26c.2-.3.2-.8.6-1s.2-.6.4-.9a1.4,1.4,0,0,0,.5-.8c.1-.2.5-.7.8-.4s.8,1,.6,1.3-.1,0-.1.2a.5.5,0,0,1-.1.6,15.9,15.9,0,0,1-1.5,2.9c-.5,1-2,2.9-1.9,4.2A4.2,4.2,0,0,0,62,32a11.8,11.8,0,0,0,3.3-3Z"/><path class="cls-1" d="M78.2,24.4l.6,1a3.5,3.5,0,0,1-.8,1.3c-1.2,1.3-2.3,2.9-4.2,3.9l-2.6.5h-1c-.3.1-.7-.3-1-.6a8.6,8.6,0,0,1-.1-1.6c.4-1.1.9-2.2,1.4-3.3a5.6,5.6,0,0,0-.9-1.7c-.8.4-2.4,4.5-3.1,4.9l-1.2-.5c.3-.5.8-1.7,1.1-2.1s1.2-2.8,1.7-3.2a4.6,4.6,0,0,0,.9-1.4c.2-.3-.2-.7.5-.7s.9.9,1.2,1.7.5.7.9,1.1a2.5,2.5,0,0,1,.8,1.4c.1.6-.1.4-.1.6l-.3.5c-.2.9-.6,1.4-.8,2.2s-.6.6-.3,1.2a4.7,4.7,0,0,0,2.4-.3c1.6-.6,2.8-2.3,3.7-3.4Z"/><path class="cls-1" d="M95.3,20.4c-.5.4-.8,1.3-1.2,1.7s-.3.5-.7.9l-1.2,1.2-.7.5c-.3.3-.3.4-.7.5a2.5,2.5,0,0,0-1.5,1.4l-2.6.9c-.1-.3-.6.1-.9,0s-.6,0-.7-.4-.2-.6-.6-.4-.4.5-.7.6l-1.2,1.1c-.2.2-.9.5-1.3.9a3.9,3.9,0,0,1-1.7.9c.1,0-.4-.2-.7,0a2.9,2.9,0,0,1-1.4-2.6,2.5,2.5,0,0,0,.3-1.7c.3-.5.5-1.2.8-1.7l1.7-3a3.3,3.3,0,0,0,1-1.4c.7-.2.8-.8,1.2-1.2s1.1-.7,1.3-1.2,1.9-1.4,3.1-1.9a1.9,1.9,0,0,1,1.8,1.9.3.3,0,0,1-.1.2c-.2.4-.2.7-.6.9s-.3.3-.2.5-.3.2-.5.3.1-1.1-.1-1.8-1.1.6-2,.7-.9.6-1.3.9-.4.8-.9,1-1,1.5-1.8,2.1l-.9,1.9c-.3.2-.3.6-.5.8s-.1.7-.5.9-.4,1.7-.2,2.7,1.5-.6,2.3-.8.2-.3.3-.4l.4-.4c.2-.2.8-.4.7-.8s.6-.1.8-.4.1-.5.6-.6.2-1,.1-1.6.6-.7.4-1.3.7-2.1,2.4-2.4.5.5.8.7-.5,1.1-.3,1.9a5.4,5.4,0,0,0-.7,1.3l-.7.9c-.1.3-.6.5-.3,1s.7,0,.8.2l.8-.3c.4-.3.8-.2,1.2-.6L90,24l2.2-1.7.9-1.2,1.5-1.5C95.2,19.1,95.2,20.5,95.3,20.4Z"/><path class="cls-1" d="M104.5,18.8a12,12,0,0,1-1.3,2.1c-.3.3-.5,1-.9,1.1a4.9,4.9,0,0,1-1.1,1.4c-.2.1-.6.8-.9.9h-.2c-.3,0-1.2.8-1.6,1l-1.2.5a6.5,6.5,0,0,1-2.4-.2,3.8,3.8,0,0,1-.9-1.5,10.3,10.3,0,0,1,.5-4.9l.3-1.3c.7-2.1,1.4-4.4,2.2-6.5a1.8,1.8,0,0,0,.2-1,3.3,3.3,0,0,0,.9-2.3c1.3-1.7,1.2-2.8,3.1-5.8.6-.9,2.1-1.9,2-2.3h1a3.4,3.4,0,0,1,.6,1.2,10.9,10.9,0,0,1,0,3.6c-.1.3-.3.4-.2.8a16.2,16.2,0,0,1-2.7,7.6,8.8,8.8,0,0,0-1.1,2.4c-.7.5-1.7,1.6-1.7,2.1s-.3.1-.3.3a8.6,8.6,0,0,0-1.4,1.3c-.3.6-1,.8-1,1.6s-.6.8-1.2,1,.1,1.1.1,1.7.9.9,1.5.7c2.3-.6,4-2.6,5-3.7a15.9,15.9,0,0,0,2.5-3.3A3.9,3.9,0,0,1,104.5,18.8ZM102.4,2.9c-.4.9-1.1,1.9-1.5,2.8s-1,1.7-1,1.8a2.3,2.3,0,0,0-.2,1.1,2.2,2.2,0,0,0-.8,2,6.4,6.4,0,0,0-1,2.4c-.1.1-.4,0-.4.2a8.6,8.6,0,0,0-.3,1.7c.1.3-.3.2-.3.3a1.5,1.5,0,0,1-.4,1.1v.8a6.6,6.6,0,0,1-.6,2c1-.3,2.7-3.4,3.4-4.1h.2c.3-.1,1-1.7,1.3-2.2s1.4-2.9,2.2-4.4a22.1,22.1,0,0,1,.5-2.5c.2,0,.1-.1,0-.2a15.5,15.5,0,0,1,.5-2.3c0-.1,0-.1-.1-.2s.1-.8,0-1.1-.3-.3-.5-.3A2,2,0,0,0,102.4,2.9Z"/><path class="cls-1" d="M56.9,62.3a3,3,0,0,1,.1,2.6,11,11,0,0,1-2.3,3.7h0c.1.3-.6,0-.5.3s-2,1.3-2.1,1.6-.9.5-.9,1-1.1,1-2,1.2-.8.7-1.4.8-.2.6-.6.8c-2,.9-3.9,2.3-6.9,3.1a10.5,10.5,0,0,1-3.6.5,3.3,3.3,0,0,0-1.5-.5,8.7,8.7,0,0,1-2.7-3,29.9,29.9,0,0,1-.9-4.5l.2-.3c.2-2.1.3-4.9,1.3-6.9l.9-2.6c.6-.6.6-1.4,1.4-1.9s.1-.8.4-1.1l.4-.3v-.2c0-.1.4-.2.5-.5a5.3,5.3,0,0,1,.8-1.4,6.5,6.5,0,0,0,1.5-1.8c1.1-1.1,2.1-2.2,3.2-3.2A5.9,5.9,0,0,1,44,48.3h-.1a.2.2,0,0,1,.2-.2h.2c.3,0,.3-.2.5-.4l1.9-.8.6-.3h2.1c1.1.5,1.1,1.8,1.8,2v.7a7.3,7.3,0,0,1,.4,2.5l-.9,2.3c0,.5-.4.7-.5,1.2a6,6,0,0,1-1.3,2.5.3.3,0,0,1-.3.3h0a1.5,1.5,0,0,1-1.3,1.3c-.3.1-.8.2-.9-.2s.5-1.2.9-1.7l1.8-3.1c-.1-.7.7-.9.4-1.7s.5-1.1.8-1.6a3.6,3.6,0,0,0-.2-1.4c-.6-2.2-1.8-1.4-3-1.9l-1.6.7c-.4.1-.4.6-.7.8h-.4c-.4.1-.5.5-.9.6s-.2.5-.6.6,0,.1-.1.1a.1.1,0,0,1-.1-.1,3.1,3.1,0,0,1-1.3,1.7c-.1.3-.7.3-.6.6s-1.3,1.7-2,2.5-.4.9-.9,1.1-1.5,2.1-2,3.2-1.1,2.1-1.6,3.2.1.6-.2.7H34c0,.2.1.5-.2.6s-.1,2.4-.6,2.7-.3.7-.2,1.1a1.6,1.6,0,0,1-.1,1.5c.1,1.2.2,2.3.2,3.4s1.8,2.9,4.3,3.8h1.3c1.7-.7,3.7-1.2,5.3-2l1-.6h.3c.3-.7.9-.2,1.5-1.1l1.7-.9c1.1-1,2.3-1.8,3.5-2.7a20,20,0,0,0,3.3-3.8A12,12,0,0,0,56.9,62.3Z"/><path class="cls-1" d="M65.7,63.5a6.1,6.1,0,0,1-1.3,2.2c-.3.3-.5.9-.9,1s-1,1.5-1.1,1.5-.6.7-.9.8h-.2c-.3.1-1.2.9-1.6,1.1l-1.2.4a4,4,0,0,1-2.4-.1,4.2,4.2,0,0,1-.9-1.6,11.7,11.7,0,0,1,.5-4.9l.3-1.2c.7-2.2,1.4-4.4,2.2-6.5a1.6,1.6,0,0,0,.2-1,3.2,3.2,0,0,0,.9-2.3c1.3-1.7,1.2-2.8,3.1-5.8.6-1,2.1-1.9,2-2.3h1A2.3,2.3,0,0,1,66,46a10.3,10.3,0,0,1,0,3.5c-.1.3-.3.5-.2.8A17.3,17.3,0,0,1,63.1,58a10.1,10.1,0,0,0-1.2,2.3,10.6,10.6,0,0,0-1.7,2c-.2.1-.2.2-.2.4A8.6,8.6,0,0,0,58.6,64c-.3.5-1,.8-1,1.5s-.6.9-1.2,1.1.1,1.2.1,1.7.9.8,1.5.7c2.3-.6,4-2.7,5-3.8a15.9,15.9,0,0,0,2.5-3.3A4.7,4.7,0,0,1,65.7,63.5ZM63.6,47.7c-.4.9-1.1,1.9-1.5,2.7l-1,1.9a2.3,2.3,0,0,0-.2,1.1,2.3,2.3,0,0,0-.8,2,6.7,6.7,0,0,0-1,2.3c-.1.2-.4.1-.4.3a8.6,8.6,0,0,0-.3,1.7c.1.3-.3.1-.3.3a1.5,1.5,0,0,1-.4,1.1v.8a4.8,4.8,0,0,1-.7,2c1.1-.3,2.7-3.5,3.5-4.1s.1-.1.2-.1,1-1.7,1.3-2.1,1.4-3,2.2-4.4.3-1.6.4-2.5.2-.2.1-.3a8.7,8.7,0,0,1,.5-2.2,1,1,0,0,1-.1-.3c-.1-.4.1-.8,0-1.1s-.3-.2-.5-.2S63.8,47.3,63.6,47.7Z"/><path class="cls-1" d="M77.4,61.4c-.3.9-3.5,4.1-5.7,4.8a6.9,6.9,0,0,1-4.9.1c-.7.1-1.1-.6-1.2-1.1a6.6,6.6,0,0,1-.6-2c.1,0,.1-.1.1-.2s.1-1.8.4-2a1.8,1.8,0,0,1,.5-1.2c.1-.8.8-1.4,1-2.2a3.9,3.9,0,0,0,1.8-1.8c1-.2,1.3-.8,2.2-1a1.2,1.2,0,0,1,.8,1.1c0,.3,0,.2-.1.4s.2.7,0,1a10,10,0,0,0-.3,3.7c.2,1-.5,1-.7,1.4s-.5.6-.6,1-.8,1-1.4,1.4a2.7,2.7,0,0,0,1.7.3h.3a11.2,11.2,0,0,0,4.5-3.2l1-.9,1-.7S77.4,61.3,77.4,61.4Zm-8.1-4.1c-.7.7-1,1.7-1.7,2.2s-1.1,3.1-.8,4.6a2,2,0,0,0,1.1-.6l.7-.7a15.2,15.2,0,0,0,1.6-4.2,1.8,1.8,0,0,0,.2-1.6l-.2-.2C69.9,57.2,69.5,57.1,69.3,57.3Z"/><path class="cls-1" d="M94.6,55.5c-.4.4-.8,1.2-1.2,1.6s-.2.5-.7.9a4.3,4.3,0,0,1-1.1,1.2l-.8.5c-.2.3-.2.4-.6.5a3,3,0,0,0-1.6,1.4l-2.6.9c-.1-.3-.6.1-.8.1a1,1,0,0,1-.8-.4c-.2-.3-.1-.7-.5-.5s-.4.5-.7.6l-1.3,1.1c-.1.2-.8.5-1.2.9a4.6,4.6,0,0,1-1.7.9c.1,0-.5-.2-.7,0a2.9,2.9,0,0,1-1.5-2.6,2.5,2.5,0,0,0,.4-1.7c.3-.5.4-1.2.7-1.7l1.8-3a1.9,1.9,0,0,0,.9-1.4c.8-.2.8-.8,1.2-1.2s1.2-.6,1.4-1.2,1.8-1.4,3-1.9a2.1,2.1,0,0,1,1.9,2c0,.1,0,.1-.1.1a1.4,1.4,0,0,1-.7,1c.2.2-.2.2-.2.4s-.3.2-.5.3.1-1.1,0-1.8-1.1.6-2.1.7a2.7,2.7,0,0,1-1.2.9c-.4.4-.5.8-.9,1s-1,1.6-1.9,2.1a6.4,6.4,0,0,1-.8,1.9c-.4.2-.3.6-.6.8s-.1.8-.5.9-.4,1.7-.2,2.7,1.6-.6,2.3-.8.2-.3.4-.4l.3-.4c.2-.2.8-.4.7-.8s.7-.1.8-.4.2-.5.6-.5.3-1.1.2-1.7.5-.7.4-1.3a2.7,2.7,0,0,1,2.3-2.4c1.6-.3.5.5.8.7s-.4,1.1-.3,1.9a3.8,3.8,0,0,0-.6,1.3l-.7.9c-.2.3-.7.5-.3,1s.6,0,.8.2l.8-.3c.4-.3.8-.2,1.2-.6l1.2-.9,2.2-1.7,1-1.2c.5-.4.9-1,1.4-1.5Z"/><path class="cls-1" d="M106.9,54.2l-1.2,1.1c-.4.6-.6.5-1.1,1a37.8,37.8,0,0,0-3.1,2.5,1.7,1.7,0,0,1-2.6.3,4.8,4.8,0,0,1,0-1.7v-.3c.1-.2,0-.3.1-.5s.2,0,.2-.2a1.3,1.3,0,0,1,.1-.6c.1-.2.3-.3.3-.5s-.1-.3,0-.3.1-.2.2-.4.6-2.4.8-3.1a37.9,37.9,0,0,0-3.8,4.2c-.2.4-.5.8-.6,1.1a8.3,8.3,0,0,1-1.1,2c-.5.6-.2.7-.6.9l-.7.9c-.7.1-.8.6-1.3.2s.1-1,.2-1.5a3.5,3.5,0,0,0,.6-1.4,15.9,15.9,0,0,0,1-3.9c0-.5-.1-3.1,0-3.5s.4-.6,1.1-.6.8,3,.6,3.7,0,.1.1.2h-.2c.2.4.2-.3.4-.3s0-.4.4-.4.5-.6.5-1,.4-.2.6-.4a4.7,4.7,0,0,0,1-1l.3-.5c.5-.7,1.5-1.3,2-2a2.5,2.5,0,0,1,2.3-1.1,1.7,1.7,0,0,1-.2,2.3c.2.5-.4.6-.3,1.1s-.1.7-.5.9a7.1,7.1,0,0,1-1,3.2,2,2,0,0,1-.3,1.1c-.4.1-.1.7-.3,1s.4-.5.7-.5a1.3,1.3,0,0,0,1-.4c.2-.3.3-.3.6-.4a9.2,9.2,0,0,0,2.8-2.2,1.8,1.8,0,0,0,.9-.8l.6-.8a4.6,4.6,0,0,0,.7-.7,4,4,0,0,1,1.6-1.3c.5,1.3.3,2-.1,2.1a1,1,0,0,0-.7.5A9.5,9.5,0,0,1,106.9,54.2Z"/><path class="cls-1" d="M106.4,55.5a2.5,2.5,0,0,0-.4-1.4c1.1-.6,2.1-2.4,3-3.1s2.3-3,3.4-4a9.8,9.8,0,0,0,1.6-1.9l1.7-1.4.8.5a1.7,1.7,0,0,1-.1,1.4l-.6,1.8c0,.1.1.2.1.3a23.7,23.7,0,0,0-.9,3.6,5.1,5.1,0,0,0-.7,1.5c.4.3.8-.4,1.4-.3l3.5-2a27.6,27.6,0,0,0,3.7-3.1c.1.7.4,1.4.2,1.3s-.6.8-.9,1l-.4.3-.3.3-.9,1c0,.2-.2.2-.4.2l-.8.7-.8.5a8.7,8.7,0,0,0-1.8,1.1c-1.5.6-3,1.8-4.8,2.1h-1.8l-1.6-.6a2.1,2.1,0,0,1-.4-1.2c-.4,0-.3.3-.6.5s-.5.1-.5.4S106.5,55.6,106.4,55.5Zm6.2-3a6.8,6.8,0,0,0,1.1-3.2c.4-.2.2-1.2.6-1.5s-.2-.5.1-.6-.1-.3-.4-.2-.1.3-.1.4a5,5,0,0,1-1.8,2.2,26.9,26.9,0,0,1-3,3.7c.8.4,1.5,1.1,2.7.6A1.6,1.6,0,0,0,112.6,52.5Z"/><path class="cls-1" d="M127.6,50.1c-.1-.2-.9.5-.9.6a8.6,8.6,0,0,1-2.2,1.5c0,.3-.4.2-.6.3s-.3.4-.4.4l-2,.7c-.2-.4-.7-.2-.8-.7a5.1,5.1,0,0,1-.2-1.3,12.5,12.5,0,0,1,.9-2.5c.7-1,1.3-3,2.1-3.9a1.4,1.4,0,0,1,.5-.8c-.1-.4.3-.5.4-.8a1.4,1.4,0,0,0,.5-.8c.3-.2.1-.6.6-.6s.6.6.9.7-.7,1.3-.8,2.1a3.2,3.2,0,0,1-1,1.9c-.5.5-.9,2.1-1.5,2.7a2.2,2.2,0,0,0-.8,2c.1.9,1.4-.5,1.7-.9a5.3,5.3,0,0,0,2.4-1.7l1.9-1.7c.6-.4.5-.8.9-1.2a4.3,4.3,0,0,1,1.7-1.2c.7-.2.2,1.8-.9,2.8s-.5.6-.7.9S127.8,49.4,127.6,50.1Zm1.7-17.8a3.7,3.7,0,0,1,.9,1.9c-.2.6-1.3.6-1.8.5S127.8,32.4,129.3,32.3Z"/><path class="cls-1" d="M143.6,44.8a4.3,4.3,0,0,1-1.2,1.1c-.3.6-.6.5-1.1,1.1s-2.2,1.4-3.1,2.4a1.8,1.8,0,0,1-2.6.4,5.4,5.4,0,0,1,0-1.8c0-.1-.1-.2-.1-.3a.8.8,0,0,1,.1-.4c.1-.2.2-.1.2-.2a2,2,0,0,1,.1-.7.5.5,0,0,0,.3-.5c.1,0-.1-.2,0-.3l.2-.3c.2-.5.6-2.5.8-3.2a26,26,0,0,0-3.8,4.3c-.1.3-.5.7-.6,1a7.3,7.3,0,0,1-1,2c-.5.6-.3.7-.7.9s-.4.7-.7.9-.8.7-1.3.2.1-1,.2-1.5a3.1,3.1,0,0,0,.6-1.3c.2-1,1-2.9,1.1-4s-.1-2.3-.1-3.5.4-.6,1.1-.6.8,3,.6,3.7,0,.1.1.3h-.2c.2.4.2-.3.4-.2s0-.4.4-.4.5-.7.5-1,.4-.3.6-.5a4.7,4.7,0,0,0,1-1l.3-.5c.6-.7,1.5-1.3,2-2a2.5,2.5,0,0,1,2.3-1.1,1.7,1.7,0,0,1-.2,2.3c.2.5-.4.6-.3,1.1s-.1.7-.5.9a7.1,7.1,0,0,1-1,3.2,1.1,1.1,0,0,1-.3,1.1c-.4.2-.1.7-.3,1s.4-.5.7-.5a1.3,1.3,0,0,0,1-.4c.2-.3.3-.3.6-.4a8.5,8.5,0,0,0,2.9-2.3,1.8,1.8,0,0,0,.9-.8,1.6,1.6,0,0,0,.6-.8c.2-.1.5-.6.7-.7a5.1,5.1,0,0,1,1.6-1.3c.5,1.4.3,2-.1,2.1a1,1,0,0,0-.7.5A6.4,6.4,0,0,1,143.6,44.8Z"/><path class="cls-1" d="M163.1,36.1c-.9.5-1.4,1.2-2.2,1.7h-.1c-.3,0-.3.3-.7.3s-.2.3-.3.5-.8.3-1,.7l-2.9,2.6c-.7.6-1.2.7-1.8,1.3a1.3,1.3,0,0,1-.5,1.2c.2,0,.2.1.2.2s0,.6.1.9-.5,1.5-.7,2a2.9,2.9,0,0,1-.1,1.6c-.2.1-.3.4-.2.5s-.4,2.2-.5,3.3h0c.1.3-.4.4-.2.8a7.2,7.2,0,0,1-.5,2.1c.1.3-1.1,3.4-1.2,4a13.4,13.4,0,0,0-.7,1.8c-.5.7-1.1,2-1.8,2.4a20.2,20.2,0,0,1-2.5,1.6h-.4l-.5-.2a11,11,0,0,1-1.4-2.1h0a3.6,3.6,0,0,0-.2-1.4,3.7,3.7,0,0,0,.1-1.8c.6-1.9.8-3.8,1.9-5.4s.3-.7.5-1a11.9,11.9,0,0,1,1.3-2.5c-.1-.2.6-1.3.8-1.4a22.5,22.5,0,0,1,2.4-3.6l.3-.2a3.5,3.5,0,0,0,1.1-1.3v-.3l.2-.5a4.6,4.6,0,0,0-1.5.9c-.8.2-1.5.7-2.3.9s-.6-.1-1,.1l-1.4-.7h0c-.1-.3-.4-.6-.4-1s.1-1.8.2-2.8a8.8,8.8,0,0,0,1.1-2.4l3.1-3.1h.4a6.6,6.6,0,0,1,2.9-1.7A6,6,0,0,1,155,34c.4.4.9.5,1.3,1l.2.8c.2.7-.6,1.4-1,1.8s-.1.7-.2,1.1a5.2,5.2,0,0,0-.2,1.1h.5c.2-.1.4.1.4-.1a14.4,14.4,0,0,1,2.5-1.8l.3-.4,1-.7c.1-.4,2.5-1.8,3-2s.1,0,.1.1A2,2,0,0,0,163.1,36.1ZM147.5,52.2a6.8,6.8,0,0,1-1.4,2.3c-.2,1.2-1.2,3.4-1.7,5s.2,1.5-.2,2l.2.4.5,1.8c0,.3.5-.1.4.4h.3a1.6,1.6,0,0,0,1.1-.7v-.3a15.7,15.7,0,0,0,1.9-2.6,24.6,24.6,0,0,1,1.4-3.8c.2-.1-.2-.6.3-.6.4-2.1.8-4.2,1.4-6.3a5.5,5.5,0,0,0,.2-1.8c-.1-.8.4-1.5.2-2.3H152C151.6,45.8,147.5,51.6,147.5,52.2Zm5.3-16.8a13.7,13.7,0,0,0-2,1.3c-.9.1-2.2,1.9-3,2.5a1.8,1.8,0,0,1-.6,1.4,2.6,2.6,0,0,1-.7,1.5c.1.5-.2,1,0,1.6l.3.5a1.2,1.2,0,0,0,1,.1c.9-.3,1.6-1.2,2.5-1.3a2.3,2.3,0,0,1,1-.7,14.6,14.6,0,0,1,1.6-1.9,15.7,15.7,0,0,1,1.3-4.2l.9-.2H155C154.9,35.2,153.3,35.3,152.8,35.4Z"/></g></g></svg>